# xmcd
#
# Track frame offsets: 
#        150
#        38110
#        70728
#        106710
#        147857
#
# Disc length: 2381 seconds
#
# Revision: 2
# Processed by: cddbd v1.5.2PL0 Copyright (c) Steve Scherf et al.
# Submitted via: ExactAudioCopy v0.99pb5
#
DISCID=3a094b05
DTITLE=Benny Blaufisch - Vol. 4 - Bennys Hochzeitsabenteuer
DYEAR=2007
DGENRE=Hörspiel
TTITLE0=Bald ist Hochzeit
TTITLE1=Gelbfischkirche oder Blaufischkirche?
TTITLE2=Hindernisse
TTITLE3=Benny hat eine Idee
TTITLE4=Die Hochzeit
EXTD=www.gerth.de, Best.-Nr. 939924
EXTT0=
EXTT1=
EXTT2=
EXTT3=
EXTT4=
PLAYORDER=
